<?xml version="1.0" encoding="UTF-8"?>
<svg xmlns="http://www.w3.org/2000/svg" xmlns:xlink="http://www.w3.org/1999/xlink" viewBox="0 0 512 512" width="512" height="512">
  <defs>
    <!-- Animated gradient for glowing contours (purple ↔ blue) -->
    <linearGradient id="strokeGradient" x1="0" y1="0" x2="512" y2="512" gradientUnits="userSpaceOnUse">
      <stop offset="0%" stop-color="#8A2BE2">
        <animate attributeName="stop-color" values="#8A2BE2; #00B3FF; #8A2BE2" dur="8s" repeatCount="indefinite" />
      </stop>
      <stop offset="100%" stop-color="#00B3FF">
        <animate attributeName="stop-color" values="#00B3FF; #8A2BE2; #00B3FF" dur="8s" repeatCount="indefinite" />
      </stop>
    </linearGradient>

    <!-- Soft neon glow around strokes -->
    <filter id="glow" x="-60%" y="-60%" width="220%" height="220%" color-interpolation-filters="sRGB">
      <feGaussianBlur in="SourceGraphic" stdDeviation="3" result="blur1">
        <animate attributeName="stdDeviation" values="2;4;2" dur="5s" repeatCount="indefinite" />
      </feGaussianBlur>
      <feGaussianBlur in="SourceGraphic" stdDeviation="8" result="blur2">
        <animate attributeName="stdDeviation" values="6;10;6" dur="7s" repeatCount="indefinite" />
      </feGaussianBlur>
      <feMerge>
        <feMergeNode in="blur2" />
        <feMergeNode in="blur1" />
        <feMergeNode in="SourceGraphic" />
      </feMerge>
    </filter>
  </defs>

  <!-- Transparent background. Only contours are stroked. -->
  <g stroke="url(#strokeGradient)" stroke-width="3" stroke-linecap="round" stroke-linejoin="round" fill="none" filter="url(#glow)">
    <!-- Outer ring that enlarges slightly as the flower opens -->
    <circle cx="256" cy="256" r="150">
      <animate attributeName="r" values="120;150" dur="1.8s" begin="0.2s" fill="freeze" />
    </circle>

    <!-- Center ring and stamen spokes -->
    <circle cx="256" cy="256" r="18">
      <animate attributeName="r" values="6;18" dur="1.6s" begin="0.2s" fill="freeze" />
    </circle>
    <!-- Spokes -->
    <g>
      <line x1="256" y1="256" x2="256" y2="212">
        <animate attributeName="y2" values="244;212" dur="1.2s" begin="0.3s" fill="freeze" />
      </line>
      <line x1="256" y1="256" x2="292" y2="236" transform="rotate(45 256 256)">
        <animate attributeName="x2" values="272;292" dur="1.2s" begin="0.35s" fill="freeze" />
      </line>
      <line x1="256" y1="256" x2="300" y2="256" transform="rotate(90 256 256)">
        <animate attributeName="x2" values="270;300" dur="1.2s" begin="0.4s" fill="freeze" />
      </line>
      <line x1="256" y1="256" x2="292" y2="276" transform="rotate(135 256 256)">
        <animate attributeName="x2" values="272;292" dur="1.2s" begin="0.45s" fill="freeze" />
      </line>
      <line x1="256" y1="256" x2="256" y2="300" transform="rotate(180 256 256)">
        <animate attributeName="y2" values="268;300" dur="1.2s" begin="0.5s" fill="freeze" />
      </line>
      <line x1="256" y1="256" x2="220" y2="276" transform="rotate(225 256 256)">
        <animate attributeName="x2" values="240;220" dur="1.2s" begin="0.55s" fill="freeze" />
      </line>
      <line x1="256" y1="256" x2="212" y2="256" transform="rotate(270 256 256)">
        <animate attributeName="x2" values="242;212" dur="1.2s" begin="0.6s" fill="freeze" />
      </line>
      <line x1="256" y1="256" x2="220" y2="236" transform="rotate(315 256 256)">
        <animate attributeName="x2" values="240;220" dur="1.2s" begin="0.65s" fill="freeze" />
      </line>
    </g>

    <!-- Petals: each petal morphs from a tight bud to an open shape (staggered) -->
    <!-- Petal at angle 0 (top) -->
    <path d="M256 210 C270 170 300 120 256 90 C212 120 242 170 256 210 Z" transform="rotate(0 256 256)">
      <animate attributeName="d" dur="1.8s" begin="0.2s" fill="freeze"
        values="M256 210 C270 170 300 120 256 90 C212 120 242 170 256 210 Z;
                M256 210 C320 200 360 130 256 80 C152 130 192 200 256 210 Z" />
      <animate attributeName="stroke-width" values="2;3" dur="1.2s" begin="0.2s" fill="freeze" />
    </path>

    <!-- 7 more petals rotated around the center with slight delays -->
    <path d="M256 210 C270 170 300 120 256 90 C212 120 242 170 256 210 Z" transform="rotate(45 256 256)">
      <animate attributeName="d" dur="1.8s" begin="0.3s" fill="freeze"
        values="M256 210 C270 170 300 120 256 90 C212 120 242 170 256 210 Z;
                M256 210 C320 200 360 130 256 80 C152 130 192 200 256 210 Z" />
      <animate attributeName="stroke-width" values="2;3" dur="1.2s" begin="0.3s" fill="freeze" />
    </path>

    <path d="M256 210 C270 170 300 120 256 90 C212 120 242 170 256 210 Z" transform="rotate(90 256 256)">
      <animate attributeName="d" dur="1.8s" begin="0.4s" fill="freeze"
        values="M256 210 C270 170 300 120 256 90 C212 120 242 170 256 210 Z;
                M256 210 C320 200 360 130 256 80 C152 130 192 200 256 210 Z" />
      <animate attributeName="stroke-width" values="2;3" dur="1.2s" begin="0.4s" fill="freeze" />
    </path>

    <path d="M256 210 C270 170 300 120 256 90 C212 120 242 170 256 210 Z" transform="rotate(135 256 256)">
      <animate attributeName="d" dur="1.8s" begin="0.5s" fill="freeze"
        values="M256 210 C270 170 300 120 256 90 C212 120 242 170 256 210 Z;
                M256 210 C320 200 360 130 256 80 C152 130 192 200 256 210 Z" />
      <animate attributeName="stroke-width" values="2;3" dur="1.2s" begin="0.5s" fill="freeze" />
    </path>

    <path d="M256 210 C270 170 300 120 256 90 C212 120 242 170 256 210 Z" transform="rotate(180 256 256)">
      <animate attributeName="d" dur="1.8s" begin="0.6s" fill="freeze"
        values="M256 210 C270 170 300 120 256 90 C212 120 242 170 256 210 Z;
                M256 210 C320 200 360 130 256 80 C152 130 192 200 256 210 Z" />
      <animate attributeName="stroke-width" values="2;3" dur="1.2s" begin="0.6s" fill="freeze" />
    </path>

    <path d="M256 210 C270 170 300 120 256 90 C212 120 242 170 256 210 Z" transform="rotate(225 256 256)">
      <animate attributeName="d" dur="1.8s" begin="0.7s" fill="freeze"
        values="M256 210 C270 170 300 120 256 90 C212 120 242 170 256 210 Z;
                M256 210 C320 200 360 130 256 80 C152 130 192 200 256 210 Z" />
      <animate attributeName="stroke-width" values="2;3" dur="1.2s" begin="0.7s" fill="freeze" />
    </path>

    <path d="M256 210 C270 170 300 120 256 90 C212 120 242 170 256 210 Z" transform="rotate(270 256 256)">
      <animate attributeName="d" dur="1.8s" begin="0.8s" fill="freeze"
        values="M256 210 C270 170 300 120 256 90 C212 120 242 170 256 210 Z;
                M256 210 C320 200 360 130 256 80 C152 130 192 200 256 210 Z" />
      <animate attributeName="stroke-width" values="2;3" dur="1.2s" begin="0.8s" fill="freeze" />
    </path>

    <path d="M256 210 C270 170 300 120 256 90 C212 120 242 170 256 210 Z" transform="rotate(315 256 256)">
      <animate attributeName="d" dur="1.8s" begin="0.9s" fill="freeze"
        values="M256 210 C270 170 300 120 256 90 C212 120 242 170 256 210 Z;
                M256 210 C320 200 360 130 256 80 C152 130 192 200 256 210 Z" />
      <animate attributeName="stroke-width" values="2;3" dur="1.2s" begin="0.9s" fill="freeze" />
    </path>
  </g>
</svg>


