<?xml version="1.0" encoding="UTF-8"?>
<svg xmlns="http://www.w3.org/2000/svg" xmlns:xlink="http://www.w3.org/1999/xlink" viewBox="0 0 512 512" width="512" height="512">
  <defs>
    <!-- Animated gradient for the contour stroke (purple ↔ blue) -->
    <linearGradient id="strokeGradient" x1="0" y1="0" x2="512" y2="512" gradientUnits="userSpaceOnUse">
      <stop offset="0%" stop-color="#8A2BE2">
        <animate attributeName="stop-color" values="#8A2BE2; #00B3FF; #8A2BE2" dur="8s" repeatCount="indefinite"/>
      </stop>
      <stop offset="100%" stop-color="#00B3FF">
        <animate attributeName="stop-color" values="#00B3FF; #8A2BE2; #00B3FF" dur="8s" repeatCount="indefinite"/>
      </stop>
    </linearGradient>

    <!-- Outer glow filter -->
    <filter id="glow" x="-60%" y="-60%" width="220%" height="220%" color-interpolation-filters="sRGB">
      <!-- First blur layer for soft glow -->
      <feGaussianBlur in="SourceGraphic" stdDeviation="2" result="blur1">
        <animate attributeName="stdDeviation" values="2;4;2" dur="4s" repeatCount="indefinite"/>
      </feGaussianBlur>
      <!-- Second blur layer for stronger spread -->
      <feGaussianBlur in="SourceGraphic" stdDeviation="6" result="blur2">
        <animate attributeName="stdDeviation" values="6;10;6" dur="6s" repeatCount="indefinite"/>
      </feGaussianBlur>
      <feMerge>
        <feMergeNode in="blur2"/>
        <feMergeNode in="blur1"/>
        <feMergeNode in="SourceGraphic"/>
      </feMerge>
    </filter>

    <!-- Reusable petal contour path (no fill) -->
    <path id="petal" fill="none" d="M256 116 C 318 116 364 172 256 264 C 148 172 194 116 256 116"/>
  </defs>

  <!-- Transparent background; only strokes are visible -->
  <g stroke="url(#strokeGradient)" stroke-width="3" stroke-linecap="round" stroke-linejoin="round" fill="none" filter="url(#glow)">
    <!-- Slowly rotate the entire flower for a subtle dynamic effect -->
    <g>
      <animateTransform attributeName="transform" attributeType="XML" type="rotate" from="0 256 256" to="360 256 256" dur="36s" repeatCount="indefinite"/>

      <!-- Petals (8 around the center) -->
      <use href="#petal" xlink:href="#petal"/>
      <use href="#petal" xlink:href="#petal" transform="rotate(45 256 256)"/>
      <use href="#petal" xlink:href="#petal" transform="rotate(90 256 256)"/>
      <use href="#petal" xlink:href="#petal" transform="rotate(135 256 256)"/>
      <use href="#petal" xlink:href="#petal" transform="rotate(180 256 256)"/>
      <use href="#petal" xlink:href="#petal" transform="rotate(225 256 256)"/>
      <use href="#petal" xlink:href="#petal" transform="rotate(270 256 256)"/>
      <use href="#petal" xlink:href="#petal" transform="rotate(315 256 256)"/>

      <!-- Inner and outer contour rings -->
      <circle cx="256" cy="256" r="38"/>
      <circle cx="256" cy="256" r="156"/>

      <!-- Decorative contour details between petals -->
      <path d="M256 156 C 280 156 296 184 256 216 C 216 184 232 156 256 156"/>
      <path d="M256 196 C 296 196 320 228 256 276 C 192 228 216 196 256 196" transform="rotate(22.5 256 256)"/>
    </g>
  </g>
</svg>


